# xmcd
#
# Track frame offsets:
#	150
#	17393
#	33232
#	44304
#	56016
#	73641
#	87111
#	117883
#	130982
#	145326
#	159958
#	169816
#	187264
#
# Disc length: 2592 seconds
#
# Revision: 0
# Processed by: cddbd v1.5.2PL0 Copyright (c) Steve Scherf et al.
# Submitted via: audiograbber 1.83.01
#
DISCID=ac0a1e0d
DTITLE=Yendis - Country At It's Best
DYEAR=1900
DGENRE=Country
TTITLE0=Who Says You Can't Go Home
TTITLE1=Days Go By
TTITLE2=Some Days You Gotta Dance
TTITLE3=Duelling Banjo
TTITLE4=Standing Outside The Fire
TTITLE5=No One Needs To Know
TTITLE6=Medley
TTITLE7=Walkin' The Country
TTITLE8=Settlin'
TTITLE9=Summertime Blues
TTITLE10=Dirty Harry
TTITLE11=Any Man Of Mine
TTITLE12=Why Walk When You Can Fly
EXTD=
EXTT0=
EXTT1=
EXTT2=
EXTT3=
EXTT4=
EXTT5=
EXTT6=
EXTT7=
EXTT8=
EXTT9=
EXTT10=
EXTT11=
EXTT12=
PLAYORDER=
